<svg xmlns="http://www.w3.org/2000/svg" width="860" height="284" viewBox="0 0 860 284" font-family="'JetBrains Mono','Courier New',monospace">
  <!-- window -->
  <rect x="1" y="1" width="858" height="282" rx="16" fill="#1e1e2e" stroke="#313244" stroke-width="2"/>
  <rect x="1" y="1" width="858" height="44" rx="16" fill="#181825"/>
  <rect x="1" y="29" width="858" height="16" fill="#181825"/>
  <line x1="1" y1="45" x2="859" y2="45" stroke="#313244" stroke-width="2"/>

  <!-- titlebar -->
  <circle cx="28" cy="23" r="7" fill="#f38ba8"/>
  <circle cx="50" cy="23" r="7" fill="#f9e2af"/>
  <circle cx="72" cy="23" r="7" fill="#a6e3a1"/>
  <text x="96" y="28" font-size="14" fill="#6c7086">~/d4ffi  -  fastfetch</text>
  <text x="824" y="28" font-size="14" fill="#6c7086" text-anchor="end">1 2 3 4</text>

  <!-- divider -->
  <line x1="312" y1="68" x2="312" y2="262" stroke="#313244" stroke-width="1"/>

  <!-- ===== D4 monogram (pixel tiles) ===== -->
  <g fill="#cba6f7">
    <rect x="56" y="74" width="15" height="15" rx="3"/>
    <rect x="76" y="74" width="15" height="15" rx="3"/>
    <rect x="96" y="74" width="15" height="15" rx="3"/>
    <rect x="116" y="74" width="15" height="15" rx="3"/>
    <rect x="56" y="94" width="15" height="15" rx="3"/>
    <rect x="136" y="94" width="15" height="15" rx="3"/>
    <rect x="56" y="114" width="15" height="15" rx="3"/>
    <rect x="136" y="114" width="15" height="15" rx="3"/>
    <rect x="56" y="134" width="15" height="15" rx="3"/>
    <rect x="136" y="134" width="15" height="15" rx="3"/>
    <rect x="56" y="154" width="15" height="15" rx="3"/>
    <rect x="136" y="154" width="15" height="15" rx="3"/>
    <rect x="56" y="174" width="15" height="15" rx="3"/>
    <rect x="136" y="174" width="15" height="15" rx="3"/>
    <rect x="56" y="194" width="15" height="15" rx="3"/>
    <rect x="76" y="194" width="15" height="15" rx="3"/>
    <rect x="96" y="194" width="15" height="15" rx="3"/>
    <rect x="116" y="194" width="15" height="15" rx="3"/>
  </g>
  <g fill="#f5c2e7">
    <rect x="176" y="74" width="15" height="15" rx="3"/>
    <rect x="236" y="74" width="15" height="15" rx="3"/>
    <rect x="176" y="94" width="15" height="15" rx="3"/>
    <rect x="236" y="94" width="15" height="15" rx="3"/>
    <rect x="176" y="114" width="15" height="15" rx="3"/>
    <rect x="236" y="114" width="15" height="15" rx="3"/>
    <rect x="176" y="134" width="15" height="15" rx="3"/>
    <rect x="196" y="134" width="15" height="15" rx="3"/>
    <rect x="216" y="134" width="15" height="15" rx="3"/>
    <rect x="236" y="134" width="15" height="15" rx="3"/>
    <rect x="256" y="134" width="15" height="15" rx="3"/>
    <rect x="236" y="154" width="15" height="15" rx="3"/>
    <rect x="236" y="174" width="15" height="15" rx="3"/>
    <rect x="236" y="194" width="15" height="15" rx="3"/>
  </g>

  <!-- name + palette -->
  <text x="58" y="232" font-size="13" fill="#cba6f7">&#8250; kevin coss</text>
  <g>
    <rect x="56" y="244" width="22" height="18" rx="3" fill="#f38ba8"/>
    <rect x="83" y="244" width="22" height="18" rx="3" fill="#fab387"/>
    <rect x="110" y="244" width="22" height="18" rx="3" fill="#f9e2af"/>
    <rect x="137" y="244" width="22" height="18" rx="3" fill="#a6e3a1"/>
    <rect x="164" y="244" width="22" height="18" rx="3" fill="#94e2d5"/>
    <rect x="191" y="244" width="22" height="18" rx="3" fill="#89b4fa"/>
    <rect x="218" y="244" width="22" height="18" rx="3" fill="#cba6f7"/>
    <rect x="245" y="244" width="22" height="18" rx="3" fill="#f5c2e7"/>
  </g>

  <!-- ===== info ===== -->
  <text x="344" y="106" font-size="19" font-weight="700"><tspan fill="#cba6f7">d4ffi</tspan><tspan fill="#6c7086">@</tspan><tspan fill="#89b4fa">onlyhuman</tspan></text>
  <line x1="344" y1="118" x2="820" y2="118" stroke="#313244" stroke-width="2"/>

  <g font-size="17" xml:space="preserve">
    <text x="344" y="158"><tspan fill="#a6e3a1" font-weight="600">role    </tspan><tspan fill="#cdd6f4">Backend Developer</tspan></text>
    <text x="344" y="190"><tspan fill="#fab387" font-weight="600">langs   </tspan><tspan fill="#cdd6f4">Java · Rust · TypeScript · JavaScript</tspan></text>
    <text x="344" y="222"><tspan fill="#94e2d5" font-weight="600">editor  </tspan><tspan fill="#cdd6f4">JetBrains IDEs · VS Code</tspan></text>
    <text x="344" y="254"><tspan fill="#f9e2af" font-weight="600">locale  </tspan><tspan fill="#cdd6f4">es_MX · en_US · fr_FR (learning)</tspan></text>
  </g>
</svg>
